mtllib bottom_stud.mtl

v  -1825.000000 25.000000 -50.000000
v  -1825.000000 25.000000 -50.000000
v  -1825.000000 25.000000 -50.000000
v  -1825.000000 25.000000 50.000000
v  -1825.000000 25.000000 50.000000
v  -1825.000000 25.000000 50.000000
v  -1825.000000 -25.000000 50.000000
v  -1825.000000 -25.000000 50.000000
v  -1825.000000 -25.000000 50.000000
v  -1825.000000 -25.000000 -50.000000
v  -1825.000000 -25.000000 -50.000000
v  -1825.000000 -25.000000 -50.000000
v  1825.000000 25.000000 -50.000000
v  1825.000000 25.000000 -50.000000
v  1825.000000 25.000000 -50.000000
v  1825.000000 -25.000000 -50.000000
v  1825.000000 -25.000000 -50.000000
v  1825.000000 -25.000000 -50.000000
v  1825.000000 -25.000000 50.000000
v  1825.000000 -25.000000 50.000000
v  1825.000000 -25.000000 50.000000
v  1825.000000 25.000000 50.000000
v  1825.000000 25.000000 50.000000
v  1825.000000 25.000000 50.000000

vt  1.000000 0.000000 0.000000
vt  1.000000 0.000000 0.000000
vt  1.000000 0.000000 0.000000
vt  1.000000 0.054776 0.000000
vt  1.000000 0.054776 0.000000
vt  1.000000 0.054776 0.000000
vt  0.000000 0.054776 0.000000
vt  0.000000 0.054776 0.000000
vt  0.000000 0.054776 0.000000
vt  0.000000 0.000000 0.000000
vt  0.000000 0.000000 0.000000
vt  0.000000 0.000000 0.000000
vt  0.502190 0.000000 0.000000
vt  0.502190 0.000000 0.000000
vt  0.502190 0.000000 0.000000
vt  0.497810 0.000000 0.000000
vt  0.497810 0.000000 0.000000
vt  0.497810 0.000000 0.000000
vt  0.497810 0.054776 0.000000
vt  0.497810 0.054776 0.000000
vt  0.497810 0.054776 0.000000
vt  0.502190 0.054776 0.000000
vt  0.502190 0.054776 0.000000
vt  0.502190 0.054776 0.000000

vn  -1.000000 0.000000 0.000000
vn  0.000000 1.000000 0.000000
vn  0.000000 0.000000 -1.000000
vn  -1.000000 0.000000 0.000000
vn  0.000000 1.000000 0.000000
vn  0.000000 0.000000 1.000000
vn  -1.000000 0.000000 0.000000
vn  0.000000 0.000000 1.000000
vn  0.000000 -1.000000 0.000000
vn  -1.000000 0.000000 0.000000
vn  0.000000 -1.000000 0.000000
vn  0.000000 0.000000 -1.000000
vn  1.000000 0.000000 0.000000
vn  0.000000 1.000000 0.000000
vn  0.000000 0.000000 -1.000000
vn  1.000000 0.000000 0.000000
vn  0.000000 -1.000000 0.000000
vn  0.000000 0.000000 -1.000000
vn  1.000000 0.000000 0.000000
vn  0.000000 0.000000 1.000000
vn  0.000000 -1.000000 0.000000
vn  1.000000 0.000000 0.000000
vn  0.000000 1.000000 0.000000
vn  0.000000 0.000000 1.000000


g 0
g 1
usemtl DEFAULT_MTL
f 7/7/7  4/4/4  1/1/1
f 23/23/23  2/2/2  5/5/5
f 10/10/10  7/7/7  1/1/1
f 15/15/15  12/12/12  3/3/3
f 23/23/23  14/14/14  2/2/2
f 20/20/20  6/6/6  8/8/8
f 24/24/24  6/6/6  20/20/20
f 17/17/17  9/9/9  11/11/11
f 21/21/21  9/9/9  17/17/17
f 18/18/18  12/12/12  15/15/15
f 22/22/22  16/16/16  13/13/13
f 22/22/22  19/19/19  16/16/16
